{"glyphs":{":":{"x_min":0,"x_max":307,"ha":307,"o":"m 83 380 l 109 525 l 261 525 l 235 380 z m 15 0 l 41 146 l 193 146 l 167 0 z"},"$":{"x_min":0,"x_max":567,"ha":567,"o":"m 272 421 l 304 603 l 299 603 q 251 603 224 579 q 197 555 197 514 q 197 483 214 461 q 231 439 272 421 z m 264 87 l 274 87 q 323 87 353 114 q 383 140 383 183 q 383 213 364 235 q 345 256 298 278 z m 179 -110 l 196 -11 q 111 1 62 52 q 14 103 14 179 q 14 184 16 199 q 16 203 16 205 l 140 205 l 140 198 q 140 152 158 126 q 176 101 214 93 l 250 300 q 159 339 117 387 q 75 436 75 502 q 75 596 136 651 q 197 705 303 705 l 321 705 l 331 760 l 382 760 l 372 701 q 453 687 495 636 q 537 586 537 502 l 537 491 l 420 491 q 419 540 403 565 q 387 591 354 598 l 320 405 q 421 365 463 317 q 505 269 505 195 q 505 99 440 41 q 376 -17 271 -17 q 262 -17 256 -17 q 251 -17 246 -16 l 230 -110 z"},"?":{"x_min":0,"x_max":558,"ha":558,"o":"m 135 0 l 160 138 l 307 138 l 284 0 z m 180 228 q 183 291 206 332 q 229 374 282 410 q 293 418 314 432 q 394 483 394 541 q 394 578 370 601 q 346 624 306 624 q 261 624 234 595 q 207 567 199 513 l 65 513 q 75 619 138 678 q 201 737 304 737 q 411 737 476 682 q 542 626 542 539 q 542 498 525 461 q 509 424 478 397 q 451 374 406 347 q 362 321 352 314 q 329 298 320 279 q 311 261 309 228 z"},"<":{"x_min":0,"x_max":833,"ha":833,"o":"m 704 583 l 704 476 l 268 298 l 704 120 l 704 13 l 129 250 l 129 347 z"},"'":{"x_min":0,"x_max":172,"ha":172,"o":"m 39 702 l 133 702 l 133 429 l 39 429 z"},"=":{"x_min":0,"x_max":833,"ha":833,"o":"m 124 242 l 709 242 l 709 145 l 124 145 z m 124 452 l 709 452 l 709 355 l 124 355 z"},"a":{"x_min":0,"x_max":556,"ha":556,"o":"m 333 256 q 301 246 246 235 q 140 215 140 154 q 140 130 157 115 q 173 101 202 101 q 247 101 281 127 q 314 154 322 195 z m 307 53 q 272 19 237 3 q 202 -12 159 -12 q 86 -12 43 30 q 0 72 0 141 q 0 230 52 276 q 103 321 225 334 q 237 335 257 337 q 353 347 353 393 q 353 415 331 428 q 309 441 272 441 q 236 441 216 427 q 196 414 191 385 l 55 385 q 68 468 124 507 q 179 547 280 547 q 380 547 437 507 q 494 467 494 397 q 494 390 493 382 q 493 375 491 366 l 442 84 q 440 74 440 66 q 439 58 439 51 q 439 38 442 29 q 445 21 453 13 l 453 0 l 307 0 z"},"L":{"x_min":0,"x_max":550,"ha":550,"o":"m 13 0 l 140 719 l 291 719 l 187 127 l 520 127 l 497 0 z"},"3":{"x_min":0,"x_max":567,"ha":567,"o":"m 6 213 l 142 213 q 142 207 141 200 q 141 194 141 186 q 141 142 167 116 q 193 90 236 90 q 290 90 322 122 q 355 154 355 205 q 355 250 327 275 q 300 300 250 300 q 248 300 242 299 q 237 299 234 299 l 252 402 q 319 402 356 429 q 392 456 392 506 q 392 546 368 568 q 344 591 302 591 q 259 591 235 564 q 210 538 203 484 l 65 484 q 78 589 140 645 q 202 700 307 700 q 410 700 469 650 q 529 600 529 514 q 529 455 495 411 q 462 368 400 348 q 448 326 473 289 q 497 252 497 201 q 497 101 427 41 q 357 -20 240 -20 q 130 -20 67 34 q 5 87 5 182 q 5 194 5 201 q 5 207 6 213 z"},";":{"x_min":0,"x_max":307,"ha":307,"o":"m 83 380 l 108 525 l 261 525 l 234 380 z m -14 -165 l -1 -113 q 38 -111 62 -83 q 86 -55 96 0 l 16 0 l 45 144 l 193 144 l 166 7 q 147 -80 104 -121 q 62 -161 -14 -165 z"},"J":{"x_min":0,"x_max":492,"ha":492,"o":"m -18 259 l 112 259 q 106 226 103 204 q 100 181 100 169 q 100 138 115 122 q 130 106 160 106 q 191 106 210 127 q 229 148 237 190 l 330 719 l 482 719 l 394 216 q 372 86 317 33 q 262 -20 155 -20 q 64 -20 16 25 q -33 70 -33 153 q -33 174 -29 200 q -25 227 -18 259 z"},"V":{"x_min":0,"x_max":566,"ha":566,"o":"m 152 0 l 27 719 l 176 719 l 253 195 l 484 719 l 629 719 l 296 0 z"},"\"":{"x_min":0,"x_max":331,"ha":331,"o":"m 198 702 l 292 702 l 292 429 l 198 429 z m 39 702 l 133 702 l 133 429 l 39 429 z"},"7":{"x_min":0,"x_max":567,"ha":567,"o":"m 113 0 q 122 124 193 267 q 265 409 397 563 l 65 563 l 87 679 l 565 679 l 545 574 q 417 420 346 280 q 276 139 259 0 z"},"S":{"x_min":0,"x_max":623,"ha":623,"o":"m 16 228 l 162 228 l 162 221 q 162 167 196 138 q 229 109 292 109 q 348 109 378 133 q 408 158 408 203 q 408 231 388 251 q 368 271 296 302 q 157 363 118 407 q 78 452 78 520 q 78 619 146 678 q 213 738 328 738 q 452 738 521 681 q 591 624 591 522 l 591 512 l 449 512 q 448 561 417 587 q 386 613 328 613 q 280 613 254 593 q 227 572 227 536 q 227 485 328 442 q 346 435 355 431 q 469 382 512 334 q 554 286 554 213 q 554 104 482 42 q 411 -20 285 -20 q 161 -20 89 43 q 16 106 16 214 z"},"}":{"x_min":0,"x_max":500,"ha":500,"o":"m 70 721 l 103 721 q 157 721 189 715 q 222 709 244 697 q 272 681 283 652 q 295 623 295 555 l 295 432 q 295 365 320 337 q 345 309 404 309 q 407 309 414 310 q 420 310 424 310 l 424 208 l 406 208 q 345 208 320 181 q 295 153 295 86 l 295 -37 q 295 -107 283 -135 q 272 -164 244 -179 q 221 -191 188 -197 q 156 -203 107 -203 q 101 -203 89 -203 q 77 -202 70 -202 l 70 -100 q 74 -100 82 -101 q 90 -101 93 -101 q 142 -101 159 -82 q 177 -63 177 -4 l 177 113 q 177 186 199 216 q 221 246 278 259 q 221 272 199 302 q 177 333 177 405 l 177 523 q 177 583 159 601 q 142 620 93 620 q 90 620 82 620 q 74 619 70 619 z"},"Z":{"x_min":0,"x_max":597,"ha":597,"o":"m -25 0 l -6 109 l 400 599 l 69 599 l 90 719 l 606 719 l 586 609 l 181 123 l 527 123 l 505 0 z"},"x":{"x_min":0,"x_max":475,"ha":475,"o":"m -51 0 l 141 265 l 8 533 l 157 533 l 225 374 l 326 533 l 484 533 l 292 265 l 429 0 l 277 0 l 211 153 l 108 0 z"},")":{"x_min":0,"x_max":370,"ha":370,"o":"m 200 718 q 251 615 275 523 q 300 430 300 340 q 300 207 247 86 q 193 -35 66 -185 l -49 -185 q 60 -33 111 110 q 162 252 162 406 q 162 490 147 566 q 131 643 100 718 z"},"&":{"x_min":0,"x_max":671,"ha":671,"o":"m 238 315 q 185 292 161 265 q 137 238 137 203 q 137 160 163 133 q 189 106 231 106 q 257 106 284 115 q 311 124 343 144 z m 432 0 l 405 44 q 361 15 312 -1 q 262 -16 211 -16 q 118 -16 57 43 q -3 103 -3 194 q -3 264 39 314 q 81 365 179 411 l 156 452 q 140 479 132 504 q 124 529 124 553 q 124 625 177 672 q 229 719 310 719 q 395 719 447 674 q 499 629 499 556 q 499 497 463 450 q 427 404 354 370 l 437 236 q 456 263 468 289 q 480 314 486 340 l 603 340 q 590 277 566 228 q 542 179 502 134 l 585 0 z m 295 466 q 336 486 354 510 q 373 533 373 563 q 373 588 357 603 q 341 617 313 617 q 285 617 267 602 q 250 587 250 562 q 250 535 287 479 q 292 471 295 466 z"},"_":{"x_min":0,"x_max":500,"ha":500,"o":"m 0 -136 l 500 -136 l 500 -236 l 0 -236 z"},"v":{"x_min":0,"x_max":479,"ha":479,"o":"m 93 0 l 18 533 l 157 533 l 194 166 l 361 533 l 507 533 l 245 0 z"},"O":{"x_min":0,"x_max":785,"ha":785,"o":"m 418 609 q 317 609 255 522 q 192 436 192 300 q 192 208 237 159 q 283 109 366 109 q 415 109 455 130 q 495 151 523 191 q 555 237 573 300 q 592 362 592 424 q 592 514 547 562 q 503 609 418 609 z m 40 299 q 40 395 73 481 q 106 567 166 630 q 217 683 284 711 q 352 739 428 739 q 578 739 661 652 q 744 564 744 407 q 744 321 712 239 q 681 156 624 94 q 572 37 504 8 q 437 -21 356 -21 q 207 -21 124 64 q 40 149 40 299 z"},"(":{"x_min":0,"x_max":370,"ha":370,"o":"m 137 -185 q 85 -81 61 12 q 36 104 36 194 q 36 326 89 446 q 142 566 271 718 l 385 718 q 276 567 226 424 q 175 281 175 127 q 175 43 190 -33 q 206 -109 237 -185 z"},"C":{"x_min":0,"x_max":737,"ha":737,"o":"m 531 247 l 682 247 q 661 123 573 53 q 485 -17 351 -17 q 207 -17 125 69 q 43 155 43 308 q 43 496 148 616 q 254 736 421 736 q 555 736 629 668 q 703 601 705 476 l 558 476 l 558 480 q 558 541 520 576 q 482 611 416 611 q 320 611 259 524 q 197 438 197 303 q 197 213 241 165 q 285 117 367 117 q 432 117 475 151 q 518 185 531 247 z"},"W":{"x_min":0,"x_max":863,"ha":863,"o":"m 120 0 l 67 719 l 207 719 l 228 241 l 414 719 l 562 719 l 578 254 l 765 719 l 912 719 l 603 0 l 461 0 l 452 520 l 250 0 z"},"A":{"x_min":0,"x_max":648,"ha":648,"o":"m 222 265 l 411 265 l 372 569 z m -71 0 l 305 719 l 479 719 l 593 0 l 444 0 l 427 140 l 160 140 l 89 0 z"},"f":{"x_min":0,"x_max":308,"ha":308,"o":"m 10 0 l 85 433 l 12 433 l 29 533 l 103 533 l 113 592 q 125 661 168 697 q 212 734 281 734 q 293 734 311 732 q 328 730 353 726 l 334 618 q 320 621 310 623 q 300 624 292 624 q 274 624 264 612 q 255 600 249 565 l 243 533 l 319 533 l 302 433 l 226 433 l 150 0 z"},"Q":{"x_min":0,"x_max":785,"ha":785,"o":"m 355 196 l 441 269 l 514 180 q 551 229 571 292 q 592 355 592 420 q 592 512 547 560 q 502 609 418 609 q 318 609 255 522 q 192 436 192 300 q 192 208 238 158 q 283 109 369 109 q 381 109 394 111 q 406 113 420 117 z m 591 -93 l 508 10 q 471 -5 430 -12 q 390 -20 347 -20 q 204 -20 122 66 q 40 151 40 301 q 40 393 73 479 q 106 565 167 630 q 217 684 284 711 q 351 739 428 739 q 574 739 659 654 q 744 569 744 426 q 744 319 708 229 q 672 139 602 72 l 677 -20 z"},"w":{"x_min":0,"x_max":764,"ha":764,"o":"m 84 0 l 27 533 l 162 533 l 189 164 l 333 533 l 470 533 l 490 168 l 640 533 l 783 533 l 539 0 l 398 0 l 375 360 l 231 0 z"},"-":{"x_min":0,"x_max":323,"ha":323,"o":"m 12 201 l 36 330 l 278 330 l 254 201 z"},"E":{"x_min":0,"x_max":611,"ha":611,"o":"m 11 0 l 140 719 l 613 719 l 591 592 l 267 592 l 237 439 l 541 439 l 516 311 l 216 311 l 184 124 l 529 124 l 506 0 z"},"s":{"x_min":0,"x_max":516,"ha":516,"o":"m 4 181 l 137 181 q 139 138 164 114 q 190 90 234 90 q 273 90 293 104 q 313 119 313 147 q 313 183 236 208 l 231 209 q 123 244 86 282 q 50 319 50 382 q 50 459 105 503 q 161 546 261 546 q 362 546 417 500 q 473 453 474 369 l 341 369 q 336 405 314 424 q 291 443 253 443 q 220 443 201 430 q 182 417 182 394 q 182 362 275 333 l 279 332 q 378 301 413 264 q 448 228 448 164 q 448 82 390 33 q 332 -16 232 -16 q 124 -16 64 35 q 4 86 4 179 z"},">":{"x_min":0,"x_max":833,"ha":833,"o":"m 129 583 l 704 347 l 704 250 l 129 13 l 129 120 l 566 298 l 129 476 z"},"l":{"x_min":0,"x_max":270,"ha":270,"o":"m 2 0 l 127 719 l 267 719 l 142 0 z"},"8":{"x_min":0,"x_max":567,"ha":567,"o":"m 312 589 q 271 589 245 561 q 219 533 219 488 q 219 448 242 424 q 266 401 306 401 q 347 401 373 429 q 398 458 398 502 q 398 543 375 566 q 353 589 312 589 z m 267 301 q 223 301 195 268 q 167 236 167 185 q 167 141 191 114 q 216 87 257 87 q 304 87 333 121 q 362 154 362 210 q 362 250 336 275 q 310 301 267 301 z m 165 376 q 125 400 106 434 q 86 468 86 513 q 86 596 148 649 q 210 702 309 702 q 414 702 475 652 q 536 602 536 517 q 536 453 505 411 q 475 369 413 348 q 458 322 480 286 q 502 249 502 199 q 502 98 437 38 q 371 -21 259 -21 q 153 -21 90 35 q 27 90 27 184 q 27 257 62 305 q 96 353 165 376 z"},"\\":{"x_min":0,"x_max":317,"ha":317,"o":"m 144 738 l 237 -93 l 172 -93 l 80 738 z"},"e":{"x_min":0,"x_max":581,"ha":581,"o":"m 171 319 l 386 319 q 386 322 387 328 q 387 334 387 337 q 387 386 364 412 q 340 437 294 437 q 246 437 214 406 q 182 375 171 319 z m 353 153 l 506 153 q 484 74 416 29 q 348 -16 250 -16 q 141 -16 80 50 q 19 117 19 236 q 19 373 96 460 q 173 547 294 547 q 404 547 466 485 q 528 422 528 313 q 528 298 526 279 q 524 259 519 220 l 158 220 l 158 217 q 158 160 184 130 q 210 99 258 99 q 291 99 314 112 q 337 125 353 153 z"},"b":{"x_min":0,"x_max":609,"ha":609,"o":"m 320 435 q 260 435 222 377 q 183 319 183 230 q 183 170 208 140 q 232 110 281 110 q 339 110 378 170 q 417 230 417 318 q 417 374 391 404 q 366 435 320 435 z m 2 0 l 128 719 l 270 719 l 226 469 q 255 510 290 528 q 326 547 373 547 q 459 547 510 487 q 560 426 560 323 q 560 178 487 81 q 413 -16 304 -16 q 245 -16 207 12 q 170 41 151 101 l 135 0 z"},"%":{"x_min":0,"x_max":860,"ha":860,"o":"m 573 168 q 573 136 595 114 q 617 92 649 92 q 680 92 703 114 q 725 137 725 168 q 725 200 703 222 q 681 244 649 244 q 617 244 595 222 q 573 200 573 168 z m 468 168 q 468 245 520 297 q 573 350 649 350 q 724 350 777 296 q 831 243 831 168 q 831 94 777 40 q 723 -14 649 -14 q 573 -14 520 39 q 468 92 468 168 z m 184 -14 l 601 705 l 679 705 l 262 -14 z m 140 523 q 140 491 162 469 q 184 447 216 447 q 247 447 270 469 q 292 492 292 523 q 292 555 270 577 q 248 600 216 600 q 184 600 162 578 q 140 555 140 523 z m 35 524 q 35 601 87 653 q 140 705 216 705 q 291 705 344 652 q 398 599 398 524 q 398 450 344 396 q 290 342 216 342 q 140 342 88 395 q 35 448 35 524 z"},"m":{"x_min":0,"x_max":883,"ha":883,"o":"m -1 0 l 94 533 l 222 533 l 206 450 q 252 503 293 525 q 334 548 384 548 q 435 548 467 525 q 499 502 513 455 q 556 505 595 527 q 634 548 684 548 q 751 548 789 509 q 826 470 826 400 q 826 388 825 375 q 824 363 821 347 l 757 0 l 619 0 l 682 354 q 683 361 684 365 q 684 369 684 372 q 684 401 669 416 q 653 430 623 430 q 579 430 546 389 q 513 349 500 278 l 448 0 l 308 0 l 371 354 q 372 359 373 364 q 373 369 373 377 q 373 402 358 416 q 344 430 317 430 q 271 430 238 391 q 204 353 191 283 l 137 0 z"},"#":{"x_min":0,"x_max":769,"ha":769,"o":"m 346 414 l 303 295 l 426 295 l 468 414 z m 346 715 l 454 715 l 383 512 l 501 512 l 573 715 l 681 715 l 609 512 l 747 512 l 711 414 l 574 414 l 533 296 l 675 296 l 640 198 l 498 198 l 426 -5 l 318 -5 l 390 198 l 271 198 l 198 -5 l 91 -5 l 162 198 l 22 198 l 59 296 l 197 296 l 239 414 l 93 414 l 129 512 l 274 512 z"},",":{"x_min":0,"x_max":284,"ha":284,"o":"m -24 -164 l -12 -112 q 27 -110 52 -83 q 76 -55 85 0 l 6 0 l 36 146 l 184 146 l 155 8 q 137 -80 94 -120 q 52 -160 -24 -164 z"},"n":{"x_min":0,"x_max":601,"ha":601,"o":"m -1 0 l 93 533 l 221 533 l 206 451 q 249 503 292 527 q 334 550 387 550 q 458 550 501 510 q 543 471 543 404 q 543 388 542 373 q 540 358 537 342 l 476 0 l 335 0 l 394 338 q 396 348 397 357 q 398 366 398 372 q 398 401 381 417 q 364 432 331 432 q 277 432 239 394 q 201 355 189 287 l 138 0 z"},"h":{"x_min":0,"x_max":604,"ha":604,"o":"m 223 469 q 268 515 305 532 q 343 550 392 550 q 462 550 504 510 q 546 470 546 404 q 546 391 544 376 q 542 360 539 342 l 478 0 l 337 0 l 396 338 q 398 348 399 357 q 400 366 400 372 q 400 402 383 417 q 367 432 334 432 q 280 432 242 393 q 203 354 191 287 l 141 0 l 2 0 l 128 719 l 268 719 z"},"z":{"x_min":0,"x_max":505,"ha":505,"o":"m -28 0 l -10 111 l 283 419 l 28 419 l 48 533 l 487 533 l 467 423 l 176 118 l 448 118 l 427 0 z"},"B":{"x_min":0,"x_max":699,"ha":699,"o":"m 182 124 l 348 124 q 417 124 450 151 q 483 178 483 233 q 483 274 455 296 q 426 319 375 319 l 217 319 z m 238 436 l 399 436 q 459 436 488 458 q 516 479 516 525 q 516 561 493 578 q 469 596 423 596 l 266 596 z m 11 0 l 140 719 l 426 719 q 542 719 603 672 q 664 625 664 534 q 664 472 635 428 q 605 385 549 364 q 591 344 612 309 q 633 274 633 225 q 633 115 563 58 q 494 0 361 0 z"},"K":{"x_min":0,"x_max":627,"ha":627,"o":"m 13 0 l 139 719 l 288 719 l 239 431 l 511 719 l 692 719 l 389 412 l 599 0 l 437 0 l 285 308 l 203 225 l 163 0 z"},"R":{"x_min":0,"x_max":692,"ha":692,"o":"m 231 397 l 372 397 q 441 397 477 426 q 512 456 512 512 q 512 553 485 573 q 458 593 402 593 l 266 593 z m 11 0 l 137 719 l 412 719 q 537 719 601 669 q 665 618 665 519 q 665 446 629 395 q 594 344 530 325 q 562 313 574 290 q 587 267 587 214 l 587 194 l 585 108 q 584 100 584 93 q 584 85 584 80 q 584 57 591 45 q 599 32 617 23 l 617 0 l 443 0 q 438 9 435 19 q 433 29 433 48 q 433 61 433 72 q 434 83 434 95 l 438 180 l 438 189 q 438 237 413 256 q 388 276 325 276 l 209 276 l 161 0 z"},"T":{"x_min":0,"x_max":566,"ha":566,"o":"m 148 0 l 252 592 l 50 592 l 72 719 l 615 719 l 593 592 l 404 592 l 300 0 z"},"P":{"x_min":0,"x_max":663,"ha":663,"o":"m 227 369 l 343 369 q 416 369 452 400 q 489 432 489 494 q 489 540 461 564 q 433 589 381 589 l 265 589 z m 11 0 l 137 719 l 384 719 q 504 719 570 663 q 635 606 635 502 q 635 379 558 313 q 481 247 337 247 l 204 247 l 159 0 z"},"|":{"x_min":0,"x_max":500,"ha":500,"o":"m 200 764 l 301 764 l 301 -236 l 200 -236 z"},"t":{"x_min":0,"x_max":317,"ha":317,"o":"m 237 -5 q 219 -11 200 -14 q 182 -17 163 -17 q 92 -17 60 7 q 27 32 27 84 q 27 95 28 105 q 28 116 30 127 l 83 432 l 9 432 l 26 533 l 100 533 l 128 691 l 267 691 l 239 533 l 315 533 l 299 432 l 223 432 l 178 177 q 176 166 174 152 q 171 139 171 137 q 171 121 179 113 q 188 106 206 106 q 212 106 223 108 q 234 110 258 116 z"},"M":{"x_min":0,"x_max":876,"ha":876,"o":"m 11 0 l 137 719 l 357 719 l 411 201 l 649 719 l 865 719 l 735 0 l 594 0 l 706 584 l 444 0 l 306 0 l 250 572 l 151 0 z"},"g":{"x_min":0,"x_max":610,"ha":610,"o":"m 296 425 q 237 425 199 369 q 161 314 161 228 q 161 174 187 145 q 213 115 261 115 q 321 115 356 169 q 392 222 392 313 q 392 368 368 396 q 343 425 296 425 z m -5 -50 l 137 -50 q 138 -80 157 -95 q 177 -110 217 -110 q 280 -110 308 -74 q 336 -39 356 83 q 327 39 290 18 q 253 -3 206 -3 q 120 -3 69 58 q 19 120 19 226 q 19 365 91 456 q 162 546 272 546 q 334 546 371 518 q 407 489 424 427 l 442 533 l 576 533 l 481 2 q 461 -114 398 -165 q 334 -215 209 -215 q 106 -215 52 -173 q -2 -131 -5 -50 z"},"j":{"x_min":0,"x_max":269,"ha":269,"o":"m 107 593 l 130 719 l 270 719 l 248 593 z m -95 -209 l -80 -99 l -74 -99 q -40 -99 -27 -88 q -14 -77 -6 -39 l 98 533 l 236 533 l 133 -29 q 114 -136 75 -174 q 36 -212 -54 -212 q -61 -212 -71 -211 q -82 -210 -95 -209 z"},"i":{"x_min":0,"x_max":266,"ha":266,"o":"m 106 594 l 128 719 l 268 719 l 247 594 z m 2 0 l 95 533 l 235 533 l 142 0 z"},"y":{"x_min":0,"x_max":510,"ha":510,"o":"m -16 -206 l -3 -100 q 3 -101 18 -102 q 32 -103 38 -103 q 75 -103 93 -84 q 111 -64 111 -26 q 111 -14 108 9 q 107 13 107 15 l 24 533 l 162 533 l 215 144 l 391 533 l 537 533 l 210 -111 q 181 -168 148 -191 q 114 -215 63 -215 q 49 -215 31 -213 q 14 -211 -16 -206 z"},"@":{"x_min":0,"x_max":1000,"ha":1000,"o":"m 570 133 q 543 92 508 73 q 473 53 425 53 q 348 53 307 95 q 267 137 267 219 q 267 336 335 415 q 403 494 503 494 q 542 494 571 478 q 600 462 618 430 l 644 478 l 731 478 l 659 186 q 658 181 657 175 q 656 169 656 166 q 656 149 667 140 q 679 132 702 132 q 721 132 742 142 q 763 151 781 169 q 823 208 844 260 q 866 312 866 375 q 866 492 776 568 q 685 643 542 643 q 473 643 414 626 q 354 610 306 577 q 223 521 178 438 q 134 354 134 255 q 134 105 235 15 q 336 -74 505 -74 q 584 -74 659 -50 q 735 -26 800 19 l 840 -38 q 765 -94 681 -123 q 598 -151 507 -151 q 413 -151 334 -127 q 256 -104 195 -57 q 119 2 82 79 q 44 156 44 254 q 44 335 70 409 q 95 483 145 544 q 217 632 319 678 q 420 723 545 723 q 627 723 700 701 q 772 679 826 638 q 892 587 925 521 q 957 456 957 373 q 957 292 925 224 q 893 156 833 108 q 799 81 759 66 q 718 52 675 52 q 623 52 597 72 q 571 93 570 133 z m 594 342 q 588 381 566 402 q 544 423 509 423 q 453 423 412 362 q 371 302 371 217 q 371 172 391 148 q 411 125 448 125 q 489 125 522 156 q 556 187 568 236 z"},".":{"x_min":0,"x_max":284,"ha":284,"o":"m 3 0 l 30 146 l 182 146 l 156 0 z"},"p":{"x_min":0,"x_max":609,"ha":609,"o":"m 319 436 q 260 436 221 377 q 181 318 181 229 q 181 172 207 141 q 233 109 279 109 q 339 109 377 169 q 415 229 415 324 q 415 377 390 407 q 365 436 319 436 z m -36 -213 l 94 533 l 220 533 l 204 446 q 236 500 276 524 q 315 549 369 549 q 457 549 508 490 q 559 431 559 328 q 559 182 488 84 q 417 -14 311 -14 q 252 -14 214 14 q 176 42 158 97 l 103 -213 z"},"X":{"x_min":0,"x_max":547,"ha":547,"o":"m -69 0 l 196 368 l 35 719 l 191 719 l 288 496 l 435 719 l 600 719 l 352 368 l 523 0 l 365 0 l 258 242 l 95 0 z"},"*":{"x_min":0,"x_max":500,"ha":500,"o":"m 271 434 l 186 313 l 102 371 l 196 489 l 60 527 l 92 626 l 222 579 l 222 719 l 320 719 l 320 579 l 450 625 l 483 526 l 346 489 l 439 372 l 355 311 z"},"Y":{"x_min":0,"x_max":559,"ha":559,"o":"m 147 0 l 196 276 l 18 719 l 178 719 l 286 426 l 449 719 l 609 719 l 342 272 l 297 0 z"},"c":{"x_min":0,"x_max":574,"ha":574,"o":"m 374 191 l 515 191 q 498 93 432 39 q 366 -15 262 -15 q 146 -15 84 51 q 21 117 21 238 q 21 376 98 462 q 174 548 300 548 q 406 548 465 496 q 523 444 527 347 l 386 347 q 385 389 363 411 q 340 433 298 433 q 237 433 200 375 q 162 318 162 226 q 162 167 189 134 q 217 102 267 102 q 307 102 335 125 q 363 148 374 191 z"},"!":{"x_min":0,"x_max":330,"ha":330,"o":"m 98 221 l 148 719 l 300 719 l 173 221 z m 29 0 l 53 145 l 202 145 l 179 0 z"},"/":{"x_min":0,"x_max":317,"ha":317,"o":"m 4 -93 l 246 738 l 313 738 l 70 -93 z"},"[":{"x_min":0,"x_max":382,"ha":382,"o":"m -2 -185 l 157 718 l 395 718 l 378 618 l 271 618 l 147 -85 l 251 -85 l 234 -185 z"},"6":{"x_min":0,"x_max":567,"ha":567,"o":"m 281 332 q 233 332 203 295 q 174 258 174 197 q 174 146 199 117 q 224 88 269 88 q 317 88 346 126 q 376 164 376 226 q 376 276 351 304 q 326 332 281 332 z m 407 510 q 405 550 386 570 q 366 591 330 591 q 278 591 244 543 q 211 496 202 408 q 226 427 254 436 q 282 445 315 445 q 405 445 460 387 q 516 330 516 237 q 516 122 447 50 q 377 -22 264 -22 q 151 -22 94 47 q 36 116 36 251 q 36 457 116 578 q 196 700 331 700 q 430 700 483 651 q 536 602 537 510 z"},"r":{"x_min":0,"x_max":376,"ha":376,"o":"m 2 0 l 97 533 l 224 533 l 203 429 q 235 492 274 520 q 312 548 368 548 q 376 548 381 548 q 386 547 390 547 l 364 399 q 346 403 335 404 q 324 406 316 406 q 265 406 233 368 q 202 331 187 252 l 142 0 z"},"2":{"x_min":0,"x_max":567,"ha":567,"o":"m 492 117 l 471 0 l -3 0 q 5 97 51 167 q 98 237 217 319 l 227 326 q 389 437 389 510 q 389 546 365 567 q 340 589 299 589 q 252 589 225 561 q 198 533 190 477 l 51 477 q 58 582 124 641 q 189 701 298 701 q 404 701 468 647 q 532 592 532 503 q 532 377 308 235 l 308 235 q 247 196 216 167 q 185 139 180 117 z"},"{":{"x_min":0,"x_max":500,"ha":500,"o":"m 431 721 l 431 619 q 427 619 419 620 q 411 620 408 620 q 359 620 342 601 q 324 583 324 522 l 324 405 q 324 333 302 302 q 280 272 223 259 q 280 246 302 216 q 324 186 324 114 l 324 -4 q 324 -64 341 -83 q 358 -101 408 -101 q 411 -101 419 -101 q 427 -100 431 -100 l 431 -202 q 424 -202 412 -203 q 400 -203 394 -203 q 345 -203 312 -197 q 280 -191 257 -179 q 229 -163 218 -135 q 206 -106 206 -37 l 206 86 q 206 153 181 181 q 156 209 97 209 q 94 209 87 208 q 81 208 77 208 l 77 310 q 81 310 87 310 q 94 309 97 309 q 156 309 181 337 q 206 366 206 433 l 206 555 q 206 625 218 653 q 229 682 257 698 q 280 710 312 716 q 345 722 394 722 q 400 722 412 722 q 424 721 431 721 z"},"9":{"x_min":0,"x_max":567,"ha":567,"o":"m 283 347 q 330 347 360 385 q 390 422 390 483 q 390 535 365 563 q 339 592 294 592 q 247 592 217 553 q 188 515 188 453 q 188 403 212 375 q 237 347 283 347 z m 156 169 q 158 129 178 109 q 197 88 233 88 q 286 88 319 135 q 353 183 361 271 q 337 252 309 243 q 281 234 249 234 q 159 234 103 292 q 47 350 47 442 q 47 558 117 629 q 187 701 299 701 q 412 701 470 632 q 527 563 527 428 q 527 223 448 101 q 368 -20 232 -20 q 133 -20 80 29 q 27 78 27 169 z"}," ":{"x_min":0,"x_max":284,"ha":284,"o":""},"I":{"x_min":0,"x_max":309,"ha":309,"o":"m 13 0 l 145 719 l 296 719 l 165 0 z"},"H":{"x_min":0,"x_max":728,"ha":728,"o":"m 11 0 l 139 719 l 290 719 l 241 443 l 519 443 l 569 719 l 717 719 l 589 0 l 440 0 l 495 316 l 217 316 l 161 0 z"},"4":{"x_min":0,"x_max":567,"ha":567,"o":"m 116 263 l 320 263 l 376 569 z m 275 0 l 300 153 l -4 153 l 15 287 l 367 690 l 534 690 l 457 263 l 530 263 l 513 153 l 438 153 l 411 0 z"},"~":{"x_min":0,"x_max":833,"ha":833,"o":"m 747 392 l 747 284 q 696 250 651 233 q 606 217 562 217 q 540 217 517 221 q 495 225 472 232 q 460 236 438 244 q 331 281 275 281 q 233 281 188 262 q 143 244 87 204 l 87 312 q 139 347 187 365 q 234 382 276 382 q 333 382 418 354 l 420 353 q 429 350 447 344 q 522 317 564 317 q 605 317 649 335 q 693 353 747 392 z"},"D":{"x_min":0,"x_max":735,"ha":735,"o":"m 184 127 l 303 127 q 368 127 413 150 q 458 174 488 223 q 513 265 527 317 q 541 369 541 420 q 541 501 503 544 q 465 586 392 586 l 266 586 z m 11 0 l 138 719 l 395 719 q 537 719 615 642 q 694 564 694 425 q 694 329 662 243 q 630 158 573 100 q 520 46 449 23 q 378 0 257 0 z"},"^":{"x_min":0,"x_max":1000,"ha":1000,"o":"m 438 713 l 561 713 l 796 439 l 681 439 l 500 620 l 318 439 l 203 439 z"},"0":{"x_min":0,"x_max":567,"ha":567,"o":"m 310 590 q 277 590 255 569 q 232 548 216 500 q 196 442 183 365 q 171 289 171 223 q 171 158 192 125 q 214 93 257 93 q 286 93 308 109 q 330 126 342 157 q 364 210 380 296 q 396 381 396 451 q 396 524 376 557 q 355 590 310 590 z m 27 249 q 27 342 48 430 q 69 518 106 578 q 142 638 196 669 q 249 700 315 700 q 426 700 483 630 q 540 560 540 422 q 540 220 462 99 q 384 -22 254 -22 q 143 -22 85 47 q 27 116 27 249 z"},"F":{"x_min":0,"x_max":556,"ha":556,"o":"m 11 0 l 143 719 l 574 719 l 551 590 l 271 590 l 241 424 l 501 424 l 478 296 l 215 296 l 161 0 z"},"`":{"x_min":0,"x_max":500,"ha":500,"o":"m 305 595 l 163 776 l 286 776 l 368 595 z"},"k":{"x_min":0,"x_max":526,"ha":526,"o":"m 2 0 l 129 719 l 269 719 l 201 340 l 388 533 l 547 533 l 346 325 l 465 0 l 323 0 l 243 228 l 168 151 l 139 0 z"},"u":{"x_min":0,"x_max":601,"ha":601,"o":"m 570 533 l 475 0 l 347 0 l 362 85 q 318 32 275 9 q 233 -14 181 -14 q 109 -14 67 25 q 25 64 25 131 q 25 147 26 163 q 28 179 31 194 l 91 533 l 234 533 l 174 198 q 172 189 171 180 q 170 171 170 164 q 170 134 187 119 q 205 103 237 103 q 291 103 329 142 q 367 181 379 249 l 431 533 z"},"]":{"x_min":0,"x_max":382,"ha":382,"o":"m 354 719 l 195 -185 l -43 -185 l -26 -85 l 81 -85 l 205 618 l 101 618 l 119 719 z"},"U":{"x_min":0,"x_max":731,"ha":731,"o":"m 140 719 l 293 719 l 212 269 q 209 255 208 243 q 207 232 207 223 q 207 169 239 141 q 270 113 331 113 q 398 113 436 151 q 475 190 490 272 l 572 719 l 722 719 l 641 261 q 616 121 536 51 q 455 -19 319 -19 q 199 -19 128 45 q 56 108 56 215 q 56 233 59 257 q 61 281 66 309 z"},"o":{"x_min":0,"x_max":616,"ha":616,"o":"m 314 434 q 249 434 204 373 q 158 312 158 226 q 158 167 188 134 q 217 100 270 100 q 335 100 380 159 q 424 218 424 306 q 424 366 395 400 q 366 434 314 434 z m 16 229 q 16 369 102 459 q 188 549 322 549 q 437 549 501 484 q 566 418 566 303 q 566 164 481 74 q 396 -16 264 -16 q 150 -16 83 50 q 16 117 16 229 z"},"N":{"x_min":0,"x_max":729,"ha":729,"o":"m 10 0 l 141 719 l 293 719 l 487 223 l 574 719 l 719 719 l 592 0 l 441 0 l 246 499 l 159 0 z"},"+":{"x_min":0,"x_max":833,"ha":833,"o":"m 367 596 l 466 596 l 466 347 l 709 347 l 709 250 l 466 250 l 466 0 l 367 0 l 367 250 l 124 250 l 124 347 l 367 347 z"},"G":{"x_min":0,"x_max":778,"ha":778,"o":"m 551 0 l 550 78 q 511 30 455 5 q 399 -20 330 -20 q 200 -20 119 67 q 39 155 39 296 q 39 381 67 462 q 95 543 146 607 q 197 670 267 702 q 337 734 424 734 q 559 734 636 665 q 714 595 715 473 l 567 473 q 563 538 526 572 q 489 606 423 606 q 370 606 329 584 q 289 562 260 519 q 230 474 213 415 q 196 356 196 296 q 196 206 239 155 q 282 105 359 105 q 431 105 484 146 q 537 188 550 254 l 370 254 l 391 371 l 717 371 l 651 0 z"},"q":{"x_min":0,"x_max":609,"ha":609,"o":"m 297 428 q 238 428 199 368 q 160 308 160 216 q 160 162 186 132 q 212 102 259 102 q 319 102 356 160 q 393 218 393 314 q 393 370 368 399 q 344 428 297 428 z m 302 -213 l 354 69 q 326 26 289 6 q 252 -15 203 -15 q 116 -15 67 46 q 18 108 18 216 q 18 360 89 454 q 161 549 269 549 q 333 549 370 521 q 406 493 425 429 l 444 533 l 575 533 l 443 -213 z"},"d":{"x_min":0,"x_max":609,"ha":609,"o":"m 292 427 q 236 427 197 368 q 158 309 158 224 q 158 165 183 134 q 208 103 257 103 q 317 103 354 161 q 391 218 391 312 q 391 368 366 397 q 340 427 292 427 z m 353 0 l 369 90 q 336 37 296 11 q 256 -14 205 -14 q 118 -14 67 47 q 17 109 17 215 q 17 356 88 452 q 158 548 263 548 q 324 548 361 522 q 397 497 417 441 l 468 719 l 606 719 l 480 0 z"},"1":{"x_min":0,"x_max":567,"ha":567,"o":"m 181 0 l 268 509 q 222 497 178 490 q 135 484 92 484 l 109 580 q 196 589 247 617 q 298 646 327 699 l 442 699 l 321 0 z"},"5":{"x_min":0,"x_max":567,"ha":567,"o":"m 20 187 l 156 187 l 156 180 q 156 137 179 113 q 203 89 245 89 q 305 89 340 132 q 376 175 376 246 q 376 297 349 327 q 321 356 273 356 q 241 356 218 344 q 194 331 180 306 l 53 306 l 134 679 l 532 679 l 512 563 l 225 563 l 196 435 q 216 450 244 458 q 271 465 308 465 q 407 465 462 408 q 517 352 517 250 q 517 127 441 53 q 365 -21 238 -21 q 137 -21 78 30 q 19 81 19 167 q 19 172 19 177 q 20 182 20 187 z"}}}
